<svg width="24" height="24" viewBox="0 0 24 24" fill="none" xmlns="http://www.w3.org/2000/svg">
<g clip-path="url(#clip0_574_25210)">
<path d="M20.3068 19.1667H21.5128L20.6606 18.3134L16.1937 13.8402L16.4268 13.6071L20.9799 18.1602L21.8335 19.0138V17.8067V6.14V4.93758L20.9809 5.78547L12.481 14.2387C12.481 14.2388 12.4809 14.2388 12.4809 14.2388C12.3248 14.394 12.1136 14.4811 11.8935 14.4811C11.6733 14.4811 11.4621 14.3939 11.306 14.2387L3.01953 5.99226L2.16683 5.14368V6.34667V17.8933V19.1301L3.02635 18.2408L7.49242 13.6201L7.73287 13.8522L3.41404 18.3191L2.59459 19.1667H3.7735H20.3068ZM21.9228 4.74408L22.2757 4.39113L21.9228 4.74408C22.079 4.90036 22.1668 5.11232 22.1668 5.33333V18.6667C22.1668 18.8877 22.079 19.0996 21.9228 19.2559C21.7665 19.4122 21.5545 19.5 21.3335 19.5H2.66683C2.44582 19.5 2.23385 19.4122 2.07757 19.2559C1.92129 19.0996 1.8335 18.8877 1.8335 18.6667V5.33333C1.8335 5.11232 1.92129 4.90036 2.07757 4.74408C2.23385 4.5878 2.44582 4.5 2.66683 4.5H21.3335C21.5545 4.5 21.7665 4.5878 21.9228 4.74408ZM3.54016 4.83333H2.32895L3.18746 5.68773L11.5408 14.0011L11.8934 14.3519L12.2461 14.0012L20.6061 5.68787L21.4654 4.83333H20.2535H3.54016Z" fill="#F7F5F5" stroke="#F7F5F5"/>
</g>
<defs>
<clipPath id="clip0_574_25210">
<rect width="24" height="24" fill="white"/>
</clipPath>
</defs>
</svg>
