<svg width="14" height="8" viewBox="0 0 14 8" fill="none" xmlns="http://www.w3.org/2000/svg">
<path d="M13 5.35138e-05L6.99938 4.60893e-05L1.5 0C1 0 0.718197 0.00135468 0.567624 0.00135468C0.41705 0.00135468 0.27245 0.0652587 0.164734 0.179405C0.112578 0.234847 0.0711434 0.301021 0.0428567 0.374054C0.01457 0.447087 0 0.525509 0 0.604728C0 0.683946 0.01457 0.762368 0.0428567 0.835401C0.0711434 0.908434 0.112578 0.974609 0.164734 1.03005L6.5784 7.81428C6.69103 7.93339 6.8421 8.00005 6.99938 8.00005C7.15667 8.00005 7.30773 7.93339 7.42037 7.81428L13.834 1.03136C13.8866 0.975877 13.9283 0.909539 13.9568 0.836264C13.9853 0.762989 14 0.684262 14 0.604728C14 0.525194 13.9853 0.446466 13.9568 0.373191C13.9283 0.299916 13.8866 0.233579 13.834 0.178096C13.7263 0.0639495 13.5817 4.60893e-05 13.4311 4.60893e-05C13.2806 4.60893e-05 13 5.35138e-05 13 5.35138e-05Z" fill="#F7F5F5"/>
</svg>
