<svg width="20" height="14" viewBox="0 0 20 14" fill="none" xmlns="http://www.w3.org/2000/svg">
<path d="M13 7C13 7.79565 12.6839 8.55871 12.1213 9.12132C11.5587 9.68393 10.7956 10 10 10C9.20435 10 8.44129 9.68393 7.87868 9.12132C7.31607 8.55871 7 7.79565 7 7C7 6.20435 7.31607 5.44129 7.87868 4.87868C8.44129 4.31607 9.20435 4 10 4C10.7956 4 11.5587 4.31607 12.1213 4.87868C12.6839 5.44129 13 6.20435 13 7Z" fill="white" fill-opacity="0.85"/>
<path d="M19.8944 6.553C17.7364 2.236 13.9044 0 10.0004 0C6.09744 0 2.26444 2.236 0.106442 6.553C0.037084 6.6918 0.000976562 6.84484 0.000976562 7C0.000976562 7.15516 0.037084 7.3082 0.106442 7.447C2.26444 11.764 6.09644 14 10.0004 14C13.9034 14 17.7364 11.764 19.8944 7.447C19.9638 7.3082 19.9999 7.15516 19.9999 7C19.9999 6.84484 19.9638 6.6918 19.8944 6.553ZM10.0004 12C7.03144 12 3.99844 10.38 2.13044 7C3.99844 3.62 7.03044 2 10.0004 2C12.9694 2 16.0024 3.62 17.8704 7C16.0024 10.38 12.9694 12 10.0004 12Z" fill="white" fill-opacity="0.85"/>
</svg>
