<svg width="47" height="37" viewBox="0 0 47 37" fill="none" xmlns="http://www.w3.org/2000/svg">
<path d="M20.9697 7.84326H11.5V22.2894L20.9697 22.2894" stroke="#F7F5F5" stroke-width="3"/>
<path d="M24.5 7.78784H35.5L28.8484 14.0615L38 22.8181" stroke="#F7F5F5" stroke-width="3"/>
<rect x="0.5" y="1.01514" width="46" height="34.8788" stroke="#F7F5F5"/>
<path d="M7.672 30.737C7.45867 30.737 7.26 30.7024 7.076 30.633C6.89467 30.561 6.736 30.461 6.6 30.333C6.46667 30.2024 6.36267 30.049 6.288 29.873C6.21333 29.697 6.176 29.505 6.176 29.297C6.176 29.089 6.21333 28.897 6.288 28.721C6.36267 28.545 6.468 28.393 6.604 28.265C6.74 28.1344 6.89867 28.0344 7.08 27.965C7.26133 27.893 7.46 27.857 7.676 27.857C7.90533 27.857 8.11467 27.897 8.304 27.977C8.49333 28.0544 8.65333 28.1704 8.784 28.325L8.448 28.641C8.34667 28.5317 8.23333 28.4504 8.108 28.397C7.98267 28.341 7.84667 28.313 7.7 28.313C7.55333 28.313 7.41867 28.337 7.296 28.385C7.176 28.433 7.07067 28.501 6.98 28.589C6.892 28.677 6.82267 28.781 6.772 28.901C6.724 29.021 6.7 29.153 6.7 29.297C6.7 29.441 6.724 29.573 6.772 29.693C6.82267 29.813 6.892 29.917 6.98 30.005C7.07067 30.093 7.176 30.161 7.296 30.209C7.41867 30.257 7.55333 30.281 7.7 30.281C7.84667 30.281 7.98267 30.2544 8.108 30.201C8.23333 30.145 8.34667 30.061 8.448 29.949L8.784 30.269C8.65333 30.421 8.49333 30.537 8.304 30.617C8.11467 30.697 7.904 30.737 7.672 30.737ZM11.2503 27.897H11.7703V30.697H11.2503V27.897ZM9.80225 30.697H9.28225V27.897H9.80225V30.697ZM11.2903 29.497H9.75825V29.053H11.2903V29.497ZM13.0005 29.061H14.3925V29.489H13.0005V29.061ZM13.0405 30.261H14.6205V30.697H12.5205V27.897H14.5645V28.333H13.0405V30.261ZM16.4962 30.737C16.2829 30.737 16.0842 30.7024 15.9002 30.633C15.7189 30.561 15.5602 30.461 15.4242 30.333C15.2909 30.2024 15.1869 30.049 15.1122 29.873C15.0376 29.697 15.0002 29.505 15.0002 29.297C15.0002 29.089 15.0376 28.897 15.1122 28.721C15.1869 28.545 15.2922 28.393 15.4282 28.265C15.5642 28.1344 15.7229 28.0344 15.9042 27.965C16.0856 27.893 16.2842 27.857 16.5002 27.857C16.7296 27.857 16.9389 27.897 17.1282 27.977C17.3176 28.0544 17.4776 28.1704 17.6082 28.325L17.2722 28.641C17.1709 28.5317 17.0576 28.4504 16.9322 28.397C16.8069 28.341 16.6709 28.313 16.5242 28.313C16.3776 28.313 16.2429 28.337 16.1202 28.385C16.0002 28.433 15.8949 28.501 15.8042 28.589C15.7162 28.677 15.6469 28.781 15.5962 28.901C15.5482 29.021 15.5242 29.153 15.5242 29.297C15.5242 29.441 15.5482 29.573 15.5962 29.693C15.6469 29.813 15.7162 29.917 15.8042 30.005C15.8949 30.093 16.0002 30.161 16.1202 30.209C16.2429 30.257 16.3776 30.281 16.5242 30.281C16.6709 30.281 16.8069 30.2544 16.9322 30.201C17.0576 30.145 17.1709 30.061 17.2722 29.949L17.6082 30.269C17.4776 30.421 17.3176 30.537 17.1282 30.617C16.9389 30.697 16.7282 30.737 16.4962 30.737ZM18.5705 30.037L18.5425 29.421L20.0105 27.897H20.5945L19.3745 29.193L19.0865 29.509L18.5705 30.037ZM18.1065 30.697V27.897H18.6265V30.697H18.1065ZM20.0585 30.697L18.9865 29.421L19.3305 29.041L20.6665 30.697H20.0585ZM20.7239 29.793V29.377H21.8239V29.793H20.7239ZM22.419 30.697V27.897H23.571C23.819 27.897 24.031 27.937 24.207 28.017C24.3856 28.097 24.523 28.2117 24.619 28.361C24.715 28.5104 24.763 28.6877 24.763 28.893C24.763 29.0984 24.715 29.2757 24.619 29.425C24.523 29.5717 24.3856 29.685 24.207 29.765C24.031 29.8424 23.819 29.881 23.571 29.881H22.707L22.939 29.645V30.697H22.419ZM24.251 30.697L23.543 29.681H24.099L24.811 30.697H24.251ZM22.939 29.701L22.707 29.453H23.547C23.7763 29.453 23.9483 29.4037 24.063 29.305C24.1803 29.2064 24.239 29.069 24.239 28.893C24.239 28.7144 24.1803 28.577 24.063 28.481C23.9483 28.385 23.7763 28.337 23.547 28.337H22.707L22.939 28.081V29.701ZM24.9487 30.697L26.2088 27.897H26.7208L27.9848 30.697H27.4408L26.3568 28.173H26.5648L25.4848 30.697H24.9487ZM25.5288 30.049L25.6688 29.641H27.1808L27.3207 30.049H25.5288ZM28.3408 30.697V27.897H28.8608V30.697H28.3408ZM30.4862 30.737C30.2675 30.737 30.0582 30.7064 29.8582 30.645C29.6582 30.581 29.4995 30.4997 29.3822 30.401L29.5622 29.997C29.6742 30.085 29.8129 30.1584 29.9782 30.217C30.1435 30.2757 30.3129 30.305 30.4862 30.305C30.6329 30.305 30.7515 30.289 30.8422 30.257C30.9329 30.225 30.9995 30.1824 31.0422 30.129C31.0849 30.073 31.1062 30.0104 31.1062 29.941C31.1062 29.8557 31.0755 29.7877 31.0142 29.737C30.9529 29.6837 30.8729 29.6424 30.7742 29.613C30.6782 29.581 30.5702 29.5517 30.4502 29.525C30.3329 29.4984 30.2142 29.4677 30.0942 29.433C29.9769 29.3957 29.8689 29.349 29.7702 29.293C29.6742 29.2344 29.5955 29.157 29.5342 29.061C29.4729 28.965 29.4422 28.8424 29.4422 28.693C29.4422 28.541 29.4822 28.4024 29.5622 28.277C29.6449 28.149 29.7689 28.0477 29.9342 27.973C30.1022 27.8957 30.3142 27.857 30.5702 27.857C30.7382 27.857 30.9049 27.8784 31.0702 27.921C31.2355 27.9637 31.3795 28.025 31.5022 28.105L31.3382 28.509C31.2129 28.4344 31.0835 28.3797 30.9502 28.345C30.8169 28.3077 30.6889 28.289 30.5662 28.289C30.4222 28.289 30.3049 28.3064 30.2142 28.341C30.1262 28.3757 30.0609 28.421 30.0182 28.477C29.9782 28.533 29.9582 28.597 29.9582 28.669C29.9582 28.7544 29.9875 28.8237 30.0462 28.877C30.1075 28.9277 30.1862 28.9677 30.2822 28.997C30.3809 29.0264 30.4902 29.0557 30.6102 29.085C30.7302 29.1117 30.8489 29.1424 30.9662 29.177C31.0862 29.2117 31.1942 29.257 31.2902 29.313C31.3889 29.369 31.4675 29.445 31.5262 29.541C31.5875 29.637 31.6182 29.7584 31.6182 29.905C31.6182 30.0544 31.5769 30.193 31.4942 30.321C31.4142 30.4464 31.2902 30.5477 31.1222 30.625C30.9542 30.6997 30.7422 30.737 30.4862 30.737ZM32.6138 29.061H34.0058V29.489H32.6138V29.061ZM32.6538 30.261H34.2338V30.697H32.1338V27.897H34.1778V28.333H32.6538V30.261ZM34.9646 30.725C34.8739 30.725 34.7966 30.6944 34.7326 30.633C34.6686 30.569 34.6366 30.489 34.6366 30.393C34.6366 30.2917 34.6686 30.2117 34.7326 30.153C34.7966 30.0917 34.8739 30.061 34.9646 30.061C35.0552 30.061 35.1326 30.0917 35.1966 30.153C35.2606 30.2117 35.2926 30.2917 35.2926 30.393C35.2926 30.489 35.2606 30.569 35.1966 30.633C35.1326 30.6944 35.0552 30.725 34.9646 30.725ZM37.047 30.737C36.8337 30.737 36.635 30.7024 36.451 30.633C36.2697 30.561 36.111 30.461 35.975 30.333C35.8417 30.2024 35.7377 30.049 35.663 29.873C35.5883 29.697 35.551 29.505 35.551 29.297C35.551 29.089 35.5883 28.897 35.663 28.721C35.7377 28.545 35.843 28.393 35.979 28.265C36.115 28.1344 36.2737 28.0344 36.455 27.965C36.6363 27.893 36.835 27.857 37.051 27.857C37.2803 27.857 37.4897 27.897 37.679 27.977C37.8683 28.0544 38.0283 28.1704 38.159 28.325L37.823 28.641C37.7217 28.5317 37.6083 28.4504 37.483 28.397C37.3577 28.341 37.2217 28.313 37.075 28.313C36.9283 28.313 36.7937 28.337 36.671 28.385C36.551 28.433 36.4457 28.501 36.355 28.589C36.267 28.677 36.1977 28.781 36.147 28.901C36.099 29.021 36.075 29.153 36.075 29.297C36.075 29.441 36.099 29.573 36.147 29.693C36.1977 29.813 36.267 29.917 36.355 30.005C36.4457 30.093 36.551 30.161 36.671 30.209C36.7937 30.257 36.9283 30.281 37.075 30.281C37.2217 30.281 37.3577 30.2544 37.483 30.201C37.6083 30.145 37.7217 30.061 37.823 29.949L38.159 30.269C38.0283 30.421 37.8683 30.537 37.679 30.617C37.4897 30.697 37.279 30.737 37.047 30.737ZM40.6253 27.897H41.1453V30.697H40.6253V27.897ZM39.1773 30.697H38.6573V27.897H39.1773V30.697ZM40.6653 29.497H39.1333V29.053H40.6653V29.497Z" fill="#F7F5F5"/>
</svg>
