<svg width="24" height="24" viewBox="0 0 24 24" fill="none" xmlns="http://www.w3.org/2000/svg">
<path d="M15.86 14.5C15.94 13.84 16 13.18 16 12.5C16 11.82 15.94 11.16 15.86 10.5H19.24C19.4 11.14 19.5 11.81 19.5 12.5C19.5 13.19 19.4 13.86 19.24 14.5M14.09 20.06C14.69 18.95 15.15 17.75 15.47 16.5H18.42C17.4512 18.1683 15.9141 19.432 14.09 20.06ZM13.84 14.5H9.16C9.06 13.84 9 13.18 9 12.5C9 11.82 9.06 11.15 9.16 10.5H13.84C13.93 11.15 14 11.82 14 12.5C14 13.18 13.93 13.84 13.84 14.5ZM11.5 20.46C10.67 19.26 10 17.93 9.59 16.5H13.41C13 17.93 12.33 19.26 11.5 20.46ZM7.5 8.5H4.58C5.53886 6.82721 7.0748 5.56149 8.9 4.94C8.3 6.05 7.85 7.25 7.5 8.5ZM4.58 16.5H7.5C7.85 17.75 8.3 18.95 8.9 20.06C7.07862 19.4317 5.54485 18.1677 4.58 16.5ZM3.76 14.5C3.6 13.86 3.5 13.19 3.5 12.5C3.5 11.81 3.6 11.14 3.76 10.5H7.14C7.06 11.16 7 11.82 7 12.5C7 13.18 7.06 13.84 7.14 14.5M11.5 4.53C12.33 5.73 13 7.07 13.41 8.5H9.59C10 7.07 10.67 5.73 11.5 4.53ZM18.42 8.5H15.47C15.157 7.26146 14.6936 6.0659 14.09 4.94C15.93 5.57 17.46 6.84 18.42 8.5ZM11.5 2.5C5.97 2.5 1.5 7 1.5 12.5C1.5 15.1522 2.55357 17.6957 4.42893 19.5711C5.35752 20.4997 6.45991 21.2362 7.67317 21.7388C8.88642 22.2413 10.1868 22.5 11.5 22.5C14.1522 22.5 16.6957 21.4464 18.5711 19.5711C20.4464 17.6957 21.5 15.1522 21.5 12.5C21.5 11.1868 21.2413 9.88642 20.7388 8.67317C20.2362 7.45991 19.4997 6.35752 18.5711 5.42893C17.6425 4.50035 16.5401 3.76375 15.3268 3.2612C14.1136 2.75866 12.8132 2.5 11.5 2.5Z" fill="#F7F5F5"/>
<path d="M15.86 14.5C15.94 13.84 16 13.18 16 12.5C16 11.82 15.94 11.16 15.86 10.5H19.24C19.4 11.14 19.5 11.81 19.5 12.5C19.5 13.19 19.4 13.86 19.24 14.5M3.76 14.5C3.6 13.86 3.5 13.19 3.5 12.5C3.5 11.81 3.6 11.14 3.76 10.5H7.14C7.06 11.16 7 11.82 7 12.5C7 13.18 7.06 13.84 7.14 14.5M14.09 20.06C14.69 18.95 15.15 17.75 15.47 16.5H18.42C17.4512 18.1683 15.9141 19.432 14.09 20.06ZM13.84 14.5H9.16C9.06 13.84 9 13.18 9 12.5C9 11.82 9.06 11.15 9.16 10.5H13.84C13.93 11.15 14 11.82 14 12.5C14 13.18 13.93 13.84 13.84 14.5ZM11.5 20.46C10.67 19.26 10 17.93 9.59 16.5H13.41C13 17.93 12.33 19.26 11.5 20.46ZM7.5 8.5H4.58C5.53886 6.82721 7.0748 5.56149 8.9 4.94C8.3 6.05 7.85 7.25 7.5 8.5ZM4.58 16.5H7.5C7.85 17.75 8.3 18.95 8.9 20.06C7.07862 19.4317 5.54485 18.1677 4.58 16.5ZM11.5 4.53C12.33 5.73 13 7.07 13.41 8.5H9.59C10 7.07 10.67 5.73 11.5 4.53ZM18.42 8.5H15.47C15.157 7.26146 14.6936 6.0659 14.09 4.94C15.93 5.57 17.46 6.84 18.42 8.5ZM11.5 2.5C5.97 2.5 1.5 7 1.5 12.5C1.5 15.1522 2.55357 17.6957 4.42893 19.5711C5.35752 20.4997 6.45991 21.2362 7.67317 21.7388C8.88642 22.2413 10.1868 22.5 11.5 22.5C14.1522 22.5 16.6957 21.4464 18.5711 19.5711C20.4464 17.6957 21.5 15.1522 21.5 12.5C21.5 11.1868 21.2413 9.88642 20.7388 8.67317C20.2362 7.45991 19.4997 6.35752 18.5711 5.42893C17.6425 4.50035 16.5401 3.76375 15.3268 3.2612C14.1136 2.75866 12.8132 2.5 11.5 2.5Z" stroke="#203B2E" stroke-width="0.5"/>
</svg>
